<svg id="Layer_1" data-name="Layer 1" xmlns="http://www.w3.org/2000/svg" viewBox="0 0 512 447.69"><defs><style>.cls-1{fill:#0089e9;}</style></defs><path class="cls-1" d="M124.18,478.53a49,49,0,0,1-37.5-6.27,53.07,53.07,0,0,1-23.89-33.83l-61.4-262a50,50,0,0,1,6.05-37.94A53.43,53.43,0,0,1,41,114.37L385.76,33.74a54,54,0,0,1,41.4,6.48,49.29,49.29,0,0,1,21.62,31.46l61.29,262.44A52.41,52.41,0,0,1,504.66,375a49.6,49.6,0,0,1-32.43,21.62ZM275.51,268.08l127-136.74a17.62,17.62,0,0,0,4.21-15.78h0a17.62,17.62,0,0,0-29.94-8.11L265.13,224.84a29.06,29.06,0,0,1-31.24,7.35L81.6,176.09a17.62,17.62,0,0,0-23.24,20.65h0a17.4,17.4,0,0,0,10.8,12.43l174.57,66.37A29.2,29.2,0,0,0,275.51,268.08Z" transform="translate(0 -32.15)"/></svg>