<svg id="Layer_1" data-name="Layer 1" xmlns="http://www.w3.org/2000/svg" viewBox="0 0 47.39 41.42"><defs><style>.cls-1{fill:#0089e9;}</style></defs><path class="cls-1" d="M11.8,44.58A4.54,4.54,0,0,1,8.33,44a4.91,4.91,0,0,1-2.21-3.13L.44,16.63A4.62,4.62,0,0,1,1,13.12,4.94,4.94,0,0,1,4.1,10.89L36,3.43a5,5,0,0,1,3.83.6,4.56,4.56,0,0,1,2,2.91l5.67,24.28A4.85,4.85,0,0,1,47,35,4.59,4.59,0,0,1,44,37Zm14-19.47L37.55,12.46A1.63,1.63,0,0,0,37.94,11h0a1.63,1.63,0,0,0-2.77-.75L24.84,21.11a2.69,2.69,0,0,1-2.89.68L7.86,16.6a1.63,1.63,0,0,0-2.15,1.91h0a1.61,1.61,0,0,0,1,1.15L22.86,25.8A2.7,2.7,0,0,0,25.8,25.11Z" transform="translate(-0.31 -3.29)"/></svg>