<svg id="Layer_1" data-name="Layer 1" xmlns="http://www.w3.org/2000/svg" viewBox="0 0 496.15 448.84"><defs><style>.cls-1{fill:#0089e9;}</style></defs><path class="cls-1" d="M79.27,449.18q-13.41,1.57-24.66-7.29T41.77,419.6L2.16,84.26Q.59,70.85,9.45,59.6T31.74,46.77L420.73.82q13.41-1.58,24.66,7.29T458.23,30.4l39.61,335.34q1.57,13.41-7.29,24.66t-22.29,12.83Zm12.59-35.49,355.88-42a16.67,16.67,0,0,0,14.61-18.51L426.65,50.91a16.67,16.67,0,0,0-18.51-14.6l-355.88,42A16.67,16.67,0,0,0,37.65,96.86l35.7,302.23A16.67,16.67,0,0,0,91.86,413.69Zm31.41-60.38L201.93,344a16.68,16.68,0,0,0,14.61-18.52l-1.37-11.59a16.66,16.66,0,0,0-18.52-14.6L118,308.6a16.67,16.67,0,0,0-14.6,18.51l1.36,11.6A16.68,16.68,0,0,0,123.27,353.31Zm202-81.07,76.95-97.55a16.67,16.67,0,0,0-2.77-23.41L390,143.87a16.66,16.66,0,0,0-23.45,2.81L317.79,209a16.69,16.69,0,0,1-23.46,2.82l-9.27-7.32a16.68,16.68,0,0,0-23.51,2.88l-7.12,9.19a16.68,16.68,0,0,0,2.86,23.3L301.84,275A16.67,16.67,0,0,0,325.25,272.24Zm-212.54-8.36,78.66-9.29A16.67,16.67,0,0,0,206,236.08l-1.37-11.6a16.67,16.67,0,0,0-18.51-14.6l-78.67,9.29a16.68,16.68,0,0,0-14.6,18.52l1.37,11.59A16.67,16.67,0,0,0,112.71,263.88Zm-10.57-89.42,78.67-9.29a16.67,16.67,0,0,0,14.6-18.51L194,135.06a16.67,16.67,0,0,0-18.51-14.6l-78.67,9.29a16.67,16.67,0,0,0-14.6,18.51l1.37,11.6A16.67,16.67,0,0,0,102.14,174.46ZM75.31,415.64,35.7,80.3Z" transform="translate(-1.92 -0.58)"/></svg>