<svg id="Layer_1" data-name="Layer 1" xmlns="http://www.w3.org/2000/svg" viewBox="0 0 493.74 492.6"><defs><style>.cls-1{fill:#0089e9;}</style></defs><path class="cls-1" d="M458.59,502.29a360.06,360.06,0,0,1-161.48-40,547.84,547.84,0,0,1-144-102.85,536.57,536.57,0,0,1-103.77-144A360,360,0,0,1,9.13,53.66,42.7,42.7,0,0,1,21.89,22.8,42.8,42.8,0,0,1,53.56,9.74h89.79A49.6,49.6,0,0,1,175.65,20a52.5,52.5,0,0,1,17,29.82L210,120.31a63.57,63.57,0,0,1-.72,29.82,45.13,45.13,0,0,1-14.09,21.5l-67.26,60.88a489.78,489.78,0,0,0,69.52,87.43,386,386,0,0,0,83.62,62.53l64.07-64.8A61.76,61.76,0,0,1,369.83,302,53.87,53.87,0,0,1,399,302l62.63,15a55.93,55.93,0,0,1,30.86,18,49.32,49.32,0,0,1,10.28,32.6v89.79a43.52,43.52,0,0,1-12.85,32A42.58,42.58,0,0,1,458.59,502.29Z" transform="translate(-9.13 -9.7)"/></svg>