<svg id="Layer_1" data-name="Layer 1" xmlns="http://www.w3.org/2000/svg" viewBox="0 0 47.97 47.91"><defs><style>.cls-1{fill:#0089e9;}</style></defs><path class="cls-1" d="M43.7,47.89A35,35,0,0,1,28,44,53.26,53.26,0,0,1,14,34a52.18,52.18,0,0,1-10.09-14A35,35,0,0,1,0,4.27a4.15,4.15,0,0,1,1.24-3A4.16,4.16,0,0,1,4.32,0h8.73a4.82,4.82,0,0,1,3.14,1A5.1,5.1,0,0,1,17.84,3.9l1.69,6.85a6.18,6.18,0,0,1-.07,2.9,4.38,4.38,0,0,1-1.37,2.09l-6.54,5.92a47.59,47.59,0,0,0,6.76,8.5,37.51,37.51,0,0,0,8.13,6.08l6.23-6.3a6,6,0,0,1,2.4-1.52,5.24,5.24,0,0,1,2.84,0L44,29.88a5.44,5.44,0,0,1,3,1.75,4.8,4.8,0,0,1,1,3.17v8.73a4.23,4.23,0,0,1-1.25,3.11A4.14,4.14,0,0,1,43.7,47.89Z" transform="translate(-0.03 0.03)"/></svg>