<svg id="Layer_1" data-name="Layer 1" xmlns="http://www.w3.org/2000/svg" viewBox="0 0 459.58 361.43"><defs><style>.cls-1{fill:#5feaff;}.cls-2{fill:#00d7ff;}.cls-3{fill:#0ac4ff;}.cls-4{fill:#1f9dff;}.cls-5{fill:#0a78ff;}.cls-6{fill:#0097dd;}</style></defs><path class="cls-1" d="M34.18,273.15H97.37a0,0,0,0,1,0,0v88.28a0,0,0,0,1,0,0H34.18A25.09,25.09,0,0,1,9.09,336.34v-38.1A25.09,25.09,0,0,1,34.18,273.15Z"/><rect class="cls-2" x="97.37" y="273.15" width="88.28" height="88.28"/><rect class="cls-3" x="185.65" y="273.15" width="88.28" height="88.28"/><rect class="cls-4" x="273.93" y="273.15" width="88.28" height="88.28"/><path class="cls-5" d="M362.21,273.15H425.4a25.09,25.09,0,0,1,25.09,25.09v38.1a25.09,25.09,0,0,1-25.09,25.09H362.21a0,0,0,0,1,0,0V273.15A0,0,0,0,1,362.21,273.15Z"/><path class="cls-6" d="M26.21,177.51V166l10.33-2.17V95.5L26.21,93.26V81.68H68.26a42.39,42.39,0,0,1,22.64,6,41.54,41.54,0,0,1,15.31,16.65,52.42,52.42,0,0,1,5.49,24.39v1.78a52.57,52.57,0,0,1-5.43,24.25A41.29,41.29,0,0,1,91.1,171.45a41.83,41.83,0,0,1-22.57,6.06Zm29.55-14.68H67.54A21.68,21.68,0,0,0,81,158.65a26.14,26.14,0,0,0,8.46-11.48,44.5,44.5,0,0,0,2.93-16.65v-1.85a44.63,44.63,0,0,0-2.93-16.75A25.77,25.77,0,0,0,81,100.54a22,22,0,0,0-13.49-4.12H55.76Z" transform="translate(-26.21 -81.68)"/><path class="cls-6" d="M115.12,177.51V166l6.85-1,30.47-83.32h19.68L202.39,165l6.85,1v11.52H176.59V166l6.65-1.18L179,151.64h-33.7l-4.21,13.17,6.65,1.18v11.52Zm34.75-40h24.62L163.3,104.65l-.92-2.9H162l-1,3.1Z" transform="translate(-26.21 -81.68)"/><path class="cls-6" d="M215.62,177.51V166l10.2-2V95.24l-10.2-2V81.68h41V93.26l-11.59,2v67.52h27l.92-14h14.68v28.76Z" transform="translate(-26.21 -81.68)"/><path class="cls-6" d="M294.6,177.51V166l10.2-2V95.24l-10.2-2V81.68h41V93.26l-11.58,2v67.52h27.05l.92-14h14.68v28.76Z" transform="translate(-26.21 -81.68)"/><path class="cls-6" d="M379.5,139.93V123.08h19.15v16.85Z" transform="translate(-26.21 -81.68)"/><path class="cls-6" d="M410,177.51V166l10.2-2V95.24l-10.2-2V81.68h74.37v25.87H469.6l-.86-11.06H439.39v24.09h32.45v14.81H439.39v27.37h30.93l.86-11.45h14.61v26.2Z" transform="translate(-26.21 -81.68)"/></svg>