<svg id="Layer_1" data-name="Layer 1" xmlns="http://www.w3.org/2000/svg" viewBox="0 0 506.13 507.3"><defs><style>.cls-1{fill:#0096df;}</style></defs><path class="cls-1" d="M256,2.35c17.17.6,31.51,6.83,43.48,18.79,5.65,5.66,11.24,11.39,17,16.94,3.37,3.26,2.92,6.42.31,9.69a45.31,45.31,0,0,1-3.49,3.58q-87.31,87.3-174.67,174.57c-5.43,5.42-8.9,11.31-6.6,19a23,23,0,0,0,5.46,9.19q32.67,33.07,65.73,65.76C209.31,325.9,211,332,208,340.41,196.71,373.19,186,406.17,175,439.06c-2.45,7.33-5.83,8.13-11.36,2.6Q91.47,369.59,19.42,297.42c-21.49-21.61-22-58.76-1.45-81.1,6.07-6.62,12.25-13.14,18.59-19.49q86.91-87,173.91-173.91C218.3,15.09,227.12,8.57,238,5.65,243.84,4.07,250,3.42,256,2.35Z" transform="translate(-2.94 -2.35)"/><path class="cls-1" d="M259,509.65c-19.18-.83-33.64-6.79-45.73-18.32-5.42-5.18-10.63-10.58-15.93-15.89-5.47-5.49-5.44-8.05.17-13.65Q285,374.28,372.65,286.89c11.2-11.11,9.74-22.74-.08-32.35C350.52,233,328.92,211,307.06,189.24c-4.57-4.56-5.91-9.22-3.71-15.68,11.4-33.47,22.41-67.07,33.56-100.62,2.46-7.39,6.11-8.19,11.77-2.53Q420.47,142.17,492.2,214c8.79,8.83,13.69,19.64,15.87,32,3.82,21.69-3.57,39.2-18.65,54.28q-95.31,95.25-190.55,190.58c-7.81,7.82-16.84,13.4-27.57,16.07C266.48,508.12,261.61,509.08,259,509.65Z" transform="translate(-2.94 -2.35)"/></svg>