<svg id="Layer_1" data-name="Layer 1" xmlns="http://www.w3.org/2000/svg" viewBox="0 0 502.29 471.45"><defs><style>.cls-1{fill:#0096df;}</style></defs><path class="cls-1" d="M354,491.72v-7.45q0-121-.08-241.92c0-27.72-11.83-49-35.91-63.07q-60.72-35.46-121.52-70.76c-1.32-.78-2.62-1.6-4.64-2.84,2.48-1.47,4.36-2.63,6.27-3.73Q267.78,62,337.42,22c3.14-1.8,5.53-1.86,8.68,0C389,47,432.22,71.55,474.92,96.93c21,12.45,32,31.67,32.07,56.33.14,82.22,0,164.44.16,246.66,0,4.7-1.53,7.16-5.61,9.44Q431.19,448.61,361,488.23C359.08,489.32,357,490.21,354,491.72Z" transform="translate(-4.85 -20.28)"/><path class="cls-1" d="M158,20.28v7.08Q158,148,158,268.7c0,28.55,12,50.21,36.92,64.63q59.7,34.55,119.23,69.37c1.78,1,3.53,2.15,6,3.66-11.55,6.66-22.42,13-33.32,19.22Q230.7,457.77,174.53,490c-3.14,1.81-5.46,1.92-8.62.08C123.3,465.25,80.47,440.8,38,415.7,16.51,403,5,383.67,5,358.32Q4.8,235,4.85,111.72c0-3.89.87-6.39,4.56-8.45Q81.59,63,153.6,22.4C154.66,21.81,155.79,21.34,158,20.28Z" transform="translate(-4.85 -20.28)"/></svg>