<svg id="Layer_1" data-name="Layer 1" xmlns="http://www.w3.org/2000/svg" viewBox="0 0 452.09 500.11"><defs><style>.cls-1{fill:#0096df;}.cls-2{fill:#00cfe5;}</style></defs><path class="cls-1" d="M417.77,20.9c-11.61-8.63-21.45-15-36.38-14.92Q225.06,6.7,68.75,6C51.4,5.86,38.92,10.36,32.58,27.19c-3.37,3.91-2.51,8.69-2.51,13.21q-.06,131.16,0,262.32c0,4.48-1.08,9.32,3,12.91,7.5,14.65,19.74,25.33,31.72,35.79,18.7,16.33,30.15,43.5,57.33,47.08,33,4.36,14.86,43.68,41.37,53.95,15,5.82,25.39,23.77,37.88,36.25,23.35,23.28,29.62,22.78,55.19.66,33.46-28.95,61.87-63.47,98.56-88.82,35.12,2.18,70.24,3.78,105.3-.92,14.71-7.18,19.82-18.55,19.61-35.17-.83-64.35-4.9-129.15,1-193C486.84,107.48,469.07,59,417.77,20.9ZM394.13,290.29c.1,14.11-4.15,20.89-18.08,17.75-83.24-18.82-136.6,28.11-186.86,83.36-7.71,8.51-16.69,25.07-27,20.8-10.66-4.41-4.32-22.06-4.21-33.71.73-77.74-.37-70.49-69.82-70.35-38.34.09-38.34,0-38.34-37.26q0-110.49,0-221c.05-36.64-3.43-32.4,31.38-32.51,47.57-.15,95.15-.05,142.72-.05,50.64,0,101.29.42,151.94-.26,13.6-.2,18.41,2.95,18.29,17.71Q393.06,162.54,394.13,290.29Z" transform="translate(-29.96 -5.94)"/><path class="cls-1" d="M315.63,159q-46,.28-92,.6l-25.11.16c-18.62.12-37.31.72-55.94.24-10.54-.26-25.12-3.33-30.86,8.33-4.82,9.79-3.48,31,6.43,37.18,5.48,3.39,12.43,2.79,18.85,2.26a317.09,317.09,0,0,1,48.73-.19c4.38.33,9.16.93,12.21,4.09,2.23,2.32,3.11,5.62,3.59,8.82C204.07,237.43,199,262.27,220,269c5.88,1.89,12.17,1.91,18.34,1.89l61.8-.1c8.24,0,17.15-.25,23.67-5.27s9-13.34,9.54-21.35c1-14.62.89-29.27.72-43.92C333.85,182.28,341.37,158.85,315.63,159Zm-26.48,64.25q-21.6.63-43.25-.09c-5.73-.19-10.37-3.6-10.16-10,.27-8.21,7.08-6.19,11.95-6.41,6.82-.32,13.67-.09,20.5-.09s13.65-.09,20.49.05c5.09.09,11.23-1.11,11.1,7.19C299.68,221,294.58,223.11,289.15,223.27Z" transform="translate(-29.96 -5.94)"/><circle class="cls-2" cx="97.48" cy="92.42" r="18.38"/></svg>