<svg id="Layer_1" data-name="Layer 1" xmlns="http://www.w3.org/2000/svg" viewBox="0 0 1371.08 533.71"><defs><style>.cls-1{fill:#0077b6;}.cls-2{fill:#00b4d8;}.cls-3{fill:#90e0ef;}</style></defs><path class="cls-1" d="M351,439.36H180.6a27.22,27.22,0,0,0-25.73,18.33l-21.94,63.44a27.21,27.21,0,0,1-25.73,18.32H54.67A27.22,27.22,0,0,1,29.05,503L198.38,31.44a27.24,27.24,0,0,1,25.63-18h84.36a27.22,27.22,0,0,1,25.62,18L503.33,503a27.22,27.22,0,0,1-25.62,36.42H424.43a27.21,27.21,0,0,1-25.73-18.32l-21.94-63.44A27.24,27.24,0,0,0,351,439.36Zm-11.71-91.5L271,150.2a5.45,5.45,0,0,0-10.29,0L192.3,347.86a5.45,5.45,0,0,0,5.15,7.22H334.18A5.44,5.44,0,0,0,339.32,347.86Z" transform="translate(-27.42 -7.86)"/><rect class="cls-1" x="518.05" y="175.88" width="108.24" height="355.71" rx="46.4"/><path class="cls-2" d="M832.77,25.36V40.47a5.18,5.18,0,0,1-5.18,5.18H787.28a5.17,5.17,0,0,0-5.17,5.17v154.5a5.18,5.18,0,0,1-5.18,5.18H756.06a5.18,5.18,0,0,1-5.17-5.18V50.82a5.18,5.18,0,0,0-5.18-5.17H705.13A5.17,5.17,0,0,1,700,40.47V25.36a5.17,5.17,0,0,1,5.17-5.18H827.59A5.18,5.18,0,0,1,832.77,25.36Z" transform="translate(-27.42 -7.86)"/><path class="cls-2" d="M891.09,203.24A69.84,69.84,0,0,1,864,175.86q-9.86-17.67-9.86-40.94,0-23,10.14-40.8a70,70,0,0,1,27.65-27.39q17.52-9.57,39.16-9.58a80.39,80.39,0,0,1,39.16,9.58,70.11,70.11,0,0,1,27.66,27.39q10.13,17.8,10.13,40.8t-10.41,40.8a72,72,0,0,1-28.34,27.52A81.71,81.71,0,0,1,929.7,213Q908.34,213,891.09,203.24Zm61.2-23.14a43.76,43.76,0,0,0,17.12-17.25q6.57-11.5,6.57-27.93t-6.3-27.8A42.56,42.56,0,0,0,953,90a45.73,45.73,0,0,0-22.46-5.75A44.92,44.92,0,0,0,908.21,90a41.06,41.06,0,0,0-16.3,17.11q-6,11.37-6,27.8,0,24.38,12.46,37.65t31.35,13.28A46.39,46.39,0,0,0,952.29,180.1Z" transform="translate(-27.42 -7.86)"/><path class="cls-2" d="M1065.79,203.24a69.82,69.82,0,0,1-27.1-27.38q-9.87-17.67-9.86-40.94,0-23,10.13-40.8a70,70,0,0,1,27.66-27.39q17.52-9.57,39.16-9.58a80.35,80.35,0,0,1,39.15,9.58,70,70,0,0,1,27.66,27.39q10.13,17.8,10.13,40.8t-10.4,40.8A72.08,72.08,0,0,1,1144,203.24a81.71,81.71,0,0,1-39.57,9.72A77.34,77.34,0,0,1,1065.79,203.24ZM1127,180.1a43.81,43.81,0,0,0,17.11-17.25q6.57-11.5,6.57-27.93t-6.29-27.8A42.59,42.59,0,0,0,1127.68,90a45.72,45.72,0,0,0-22.45-5.75A45,45,0,0,0,1082.91,90a41,41,0,0,0-16.29,17.11q-6,11.37-6,27.8,0,24.38,12.46,37.65t31.36,13.28A46.39,46.39,0,0,0,1127,180.1Z" transform="translate(-27.42 -7.86)"/><path class="cls-2" d="M1244.88,13V205.32a5.18,5.18,0,0,1-5.18,5.18h-20.86a5.18,5.18,0,0,1-5.18-5.18V13a5.18,5.18,0,0,1,5.18-5.17h20.86A5.18,5.18,0,0,1,1244.88,13Z" transform="translate(-27.42 -7.86)"/><path class="cls-2" d="M1308.82,206.53A56,56,0,0,1,1286.5,189a43.73,43.73,0,0,1-8.13-18.74,5.18,5.18,0,0,1,5.11-6h22.24a5.13,5.13,0,0,1,5,3.79,22.58,22.58,0,0,0,8.52,12.23q8.35,6.44,21,6.43,13.15,0,20.4-5.06t7.26-13q0-8.49-8.08-12.6t-25.6-9a246.49,246.49,0,0,1-27.66-9A48.38,48.38,0,0,1,1288,124.51q-7.82-9-7.81-23.82a37.12,37.12,0,0,1,7.12-22q7.13-10,20.4-15.75t30.54-5.75q25.73,0,41.48,13,13.59,11.22,16.27,29.5a5.19,5.19,0,0,1-5.12,6h-21.11a5.24,5.24,0,0,1-5.06-4.1,21.62,21.62,0,0,0-7.57-12.06q-7.39-6-20-6-12.33,0-18.89,4.65a14.42,14.42,0,0,0-6.58,12.33,13.32,13.32,0,0,0,4.39,10.13,31,31,0,0,0,10.67,6.43q6.3,2.34,18.63,5.89a202.93,202.93,0,0,1,27,8.9,50.26,50.26,0,0,1,18.21,13.28q7.67,8.77,7.94,23.28a39,39,0,0,1-7.12,23q-7.12,10.14-20.13,15.88T1340.72,213Q1322.92,213,1308.82,206.53Z" transform="translate(-27.42 -7.86)"/><path class="cls-2" d="M741,354v180a5.18,5.18,0,0,1-5.17,5.17H715a5.18,5.18,0,0,1-5.18-5.17V354a5.17,5.17,0,0,1,5.18-5.17h20.87A5.17,5.17,0,0,1,741,354Z" transform="translate(-27.42 -7.86)"/><path class="cls-2" d="M890.13,393.15a52.66,52.66,0,0,1,22,21.9q7.94,14.52,7.94,35.05v83.83a5.18,5.18,0,0,1-5.18,5.17H894.35a5.18,5.18,0,0,1-5.18-5.17V454.76q0-20.26-10.13-31.08t-27.66-10.82q-17.52,0-27.79,10.82t-10.27,31.08v79.17a5.18,5.18,0,0,1-5.17,5.17H787.28a5.18,5.18,0,0,1-5.18-5.17V393.39a5.17,5.17,0,0,1,5.18-5.17h20.87a5.17,5.17,0,0,1,5.17,5.17h0a5.17,5.17,0,0,0,8.32,4.1A54.74,54.74,0,0,1,832.9,391a62.55,62.55,0,0,1,25.33-5.21Q876,385.75,890.13,393.15Z" transform="translate(-27.42 -7.86)"/><path class="cls-2" d="M1017.9,413.68h-17.58a5.18,5.18,0,0,0-5.18,5.18V533.93A5.17,5.17,0,0,1,990,539.1H968.83a5.18,5.18,0,0,1-5.18-5.17V418.86a5.17,5.17,0,0,0-5.17-5.18H951a5.17,5.17,0,0,1-5.18-5.17V393.39a5.17,5.17,0,0,1,5.18-5.17h7.45a5.17,5.17,0,0,0,5.17-5.18v-5.5q0-26,13.83-37.93,12.53-10.78,38-11.8a5.19,5.19,0,0,1,5.41,5.17v15.75a5.21,5.21,0,0,1-4.85,5.16q-10.42.78-15.15,5.16-5.75,5.34-5.75,18.49V383a5.18,5.18,0,0,0,5.18,5.18h17.58a5.17,5.17,0,0,1,5.18,5.17v15.12A5.17,5.17,0,0,1,1017.9,413.68Z" transform="translate(-27.42 -7.86)"/><path class="cls-2" d="M1077.57,531.84a69.65,69.65,0,0,1-27.11-27.38q-9.87-17.65-9.86-40.94,0-23,10.13-40.8a70,70,0,0,1,27.66-27.38q17.52-9.58,39.16-9.59t39.15,9.59a70,70,0,0,1,27.66,27.38q10.13,17.8,10.13,40.8t-10.4,40.8a72,72,0,0,1-28.34,27.52,81.61,81.61,0,0,1-39.57,9.73Q1094.82,541.57,1077.57,531.84Zm61.2-23.13a43.9,43.9,0,0,0,17.11-17.26q6.57-11.49,6.58-27.93t-6.3-27.79a42.61,42.61,0,0,0-16.71-17.12,45.72,45.72,0,0,0-22.45-5.75,45,45,0,0,0-22.32,5.75,41,41,0,0,0-16.29,17.12q-6,11.37-6,27.79,0,24.38,12.46,37.66t31.36,13.28A46.5,46.5,0,0,0,1138.77,508.71Z" transform="translate(-27.42 -7.86)"/><path class="cls-1" d="M656.78,147.22l-41.33,23.86c-8.85,5.11-23.21,5.11-32.06,0l-41.33-23.86c-8.85-5.11-8.85-13.4,0-18.51l41.33-23.87c8.85-5.11,23.21-5.11,32.06,0l41.33,23.87C665.64,133.82,665.64,142.11,656.78,147.22Z" transform="translate(-27.42 -7.86)"/><path class="cls-2" d="M656.78,125l-41.33,23.86c-8.85,5.11-23.21,5.11-32.06,0L542.06,125c-8.85-5.12-8.85-13.41,0-18.52l41.33-23.86c8.85-5.11,23.21-5.11,32.06,0l41.33,23.86C665.64,111.55,665.64,119.84,656.78,125Z" transform="translate(-27.42 -7.86)"/><path class="cls-3" d="M657.29,97.75,616,121.61c-8.86,5.12-23.21,5.12-32.07,0L542.57,97.75c-8.86-5.11-8.86-13.4,0-18.51l41.32-23.87c8.86-5.11,23.21-5.11,32.07,0l41.33,23.87C666.14,84.35,666.14,92.64,657.29,97.75Z" transform="translate(-27.42 -7.86)"/></svg>