<svg id="Layer_1" data-name="Layer 1" xmlns="http://www.w3.org/2000/svg" viewBox="0 0 1009.16 968.89"><defs><style>.cls-1{fill:#0077b6;}.cls-2{fill:#00b4d8;}.cls-3{fill:#90e0ef;}</style></defs><path class="cls-1" d="M960.47,778.94,635.92,966.33c-69.53,40.15-182.27,40.15-251.8,0L59.57,778.94C-10,738.79-10,673.7,59.57,633.55l324.55-187.4c69.53-40.15,182.27-40.15,251.8,0l324.55,187.4C1030,673.7,1030,738.79,960.47,778.94Z" transform="translate(-7.42 -27.56)"/><path class="cls-2" d="M960.47,604.11,635.92,791.5c-69.53,40.15-182.27,40.15-251.8,0L59.57,604.11C-10,564-10,498.86,59.57,458.71L384.12,271.32c69.53-40.15,182.27-40.15,251.8,0L960.47,458.71C1030,498.86,1030,564,960.47,604.11Z" transform="translate(-7.42 -27.56)"/><path class="cls-3" d="M964.43,390.45,639.88,577.85c-69.53,40.15-182.27,40.15-251.8,0L63.53,390.45C-6,350.3-6,285.21,63.53,245.06L388.08,57.67c69.53-40.15,182.27-40.15,251.8,0L964.43,245.06C1034,285.21,1034,350.3,964.43,390.45Z" transform="translate(-7.42 -27.56)"/></svg>