<?xml version="1.0" encoding="utf-8"?>
<!-- Generator: Adobe Illustrator 26.0.1, SVG Export Plug-In . SVG Version: 6.00 Build 0)  -->
<svg version="1.1" id="Layer_1" xmlns="http://www.w3.org/2000/svg" xmlns:xlink="http://www.w3.org/1999/xlink" x="0px" y="0px"
	 viewBox="0 0 512 512" style="enable-background:new 0 0 512 512;" xml:space="preserve">
<style type="text/css">
	.st0{fill:#0089E9;}
</style>
<g id="Edges">
</g>
<g id="Symbol">
	<g>
		<path class="st0" d="M88.4,13.4C71.5,20,57.2,28.7,43,43C28.7,57.1,20,71.5,13.4,88.2c-6.3,16.2-10.6,34.9-11.9,62.1
			S0,186.4,0,255.9s0.3,78.3,1.6,105.5c1.2,27.3,5.6,45.9,11.9,62.1c6.6,16.9,15.3,31.1,29.6,45.4s28.5,23,45.4,29.6
			c16.2,6.3,34.9,10.6,62.1,11.9c27.3,1.2,36,1.6,105.5,1.6s78.3-0.3,105.5-1.6c27.3-1.2,45.9-5.6,62.1-11.9
			c16.9-6.6,31.1-15.3,45.4-29.6c14.3-14.3,23-28.5,29.6-45.4c6.3-16.2,10.6-34.9,11.9-62.1c1.2-27.3,1.6-36,1.6-105.5
			s-0.3-78.3-1.6-105.5c-1.2-27.3-5.6-45.9-11.9-62.1C492,71.5,483.3,57.1,469.1,43c-14.3-14.3-28.5-23-45.4-29.6
			c-16.2-6.3-34.9-10.6-62.1-11.9C334.4,0.3,325.6,0,256.1,0s-78.3,0.3-105.5,1.6C123.2,2.7,104.6,7.1,88.4,13.4z M359.4,47.6
			c25,1.1,38.5,5.3,47.6,8.8c12,4.7,20.5,10.2,29.5,19.1c8.9,8.9,14.5,17.5,19.1,29.5c3.5,9.1,7.7,22.6,8.8,47.6
			c1.2,27,1.5,35.1,1.5,103.4s-0.3,76.5-1.5,103.4c-1.1,25-5.3,38.5-8.8,47.6c-4.7,12-10.2,20.5-19.1,29.5
			c-8.9,8.9-17.5,14.5-29.5,19.1c-9.1,3.5-22.6,7.7-47.6,8.8c-27,1.2-35.1,1.5-103.4,1.5s-76.5-0.3-103.4-1.5
			c-25-1.1-38.5-5.3-47.6-8.8c-12-4.7-20.5-10.2-29.5-19.1c-8.9-8.9-14.5-17.5-19.1-29.5c-3.5-9.1-7.7-22.6-8.8-47.6
			c-1.2-27-1.5-35.1-1.5-103.4s0.3-76.5,1.5-103.4c1.1-25,5.3-38.5,8.8-47.6c4.7-12,10.2-20.5,19.1-29.5S93,61.1,105,56.4
			c9.1-3.5,22.6-7.7,47.6-8.8c27-1.2,35.1-1.5,103.4-1.5S332.5,46.3,359.4,47.6z"/>
		<path class="st0" d="M124.6,256c0,72.6,58.9,131.4,131.4,131.4S387.4,328.5,387.4,256S328.6,124.6,256,124.6
			S124.6,183.4,124.6,256z M341.3,256c0,47.1-38.2,85.3-85.3,85.3s-85.3-38.2-85.3-85.3s38.2-85.3,85.3-85.3S341.3,208.9,341.3,256z
			"/>
		<circle class="st0" cx="392.7" cy="119.4" r="30.7"/>
	</g>
</g>
</svg>
